<?xml version="1.0" standalone="no"?>
<svg viewBox="0 0 200 200" xmlns="http://www.w3.org/2000/svg">
  <path fill="#8A3FFC" d="M33.2,-49.8C45.9,-43.5,60.9,-39.1,68.7,-29.3C76.5,-19.4,77,-4.1,72.6,8.8C68.1,21.7,58.7,32.2,50,44.7C41.3,57.2,33.3,71.7,21,78.5C8.7,85.3,-7.9,84.4,-24,80.3C-40.1,76.2,-55.6,68.9,-60.5,56.3C-65.4,43.7,-59.6,25.7,-62.7,8.6C-65.8,-8.5,-77.9,-24.8,-77.3,-39.2C-76.8,-53.6,-63.6,-66.1,-48.7,-71.3C-33.7,-76.6,-16.8,-74.6,-3.3,-69.4C10.3,-64.3,20.5,-56.1,33.2,-49.8Z" transform="translate(100 100)" />
</svg>
