<?xml version="1.0" standalone="no"?>
<svg viewBox="0 0 200 200" xmlns="http://www.w3.org/2000/svg">
  <path fill="#8A3FFC" d="M38.5,-58C50.4,-52.3,61,-42.5,64.7,-30.6C68.5,-18.8,65.6,-4.9,63.9,9.5C62.3,23.8,62,38.6,55.5,50.8C49.1,63,36.7,72.7,23.3,74.4C9.9,76,-4.4,69.7,-18.2,64.6C-32.1,59.4,-45.7,55.3,-53.1,46.3C-60.5,37.2,-61.8,23.1,-62.2,9.9C-62.7,-3.4,-62.2,-15.8,-59.6,-29.6C-57,-43.4,-52.2,-58.5,-41.9,-65C-31.6,-71.5,-15.8,-69.3,-1.2,-67.4C13.3,-65.5,26.6,-63.8,38.5,-58Z" transform="translate(100 100)" />
</svg>
