<?xml version="1.0" standalone="no"?>
<svg viewBox="0 0 200 200" xmlns="http://www.w3.org/2000/svg">
  <path fill="#8A3FFC" d="M15.3,-39.9C17.9,-25.1,16.7,-17,29.6,-11.5C42.5,-5.9,69.6,-3,73.8,2.4C78,7.8,59.3,15.6,50,27.5C40.8,39.4,41,55.3,34.2,67.9C27.4,80.4,13.7,89.6,2.3,85.5C-9,81.5,-18.1,64.2,-25.2,51.9C-32.4,39.6,-37.7,32.2,-44.3,24.4C-50.8,16.5,-58.6,8.3,-55.9,1.6C-53.2,-5.1,-40,-10.3,-30.5,-13.1C-21.1,-15.9,-15.4,-16.4,-10.9,-30.1C-6.5,-43.9,-3.2,-70.9,1.6,-73.6C6.4,-76.3,12.8,-54.8,15.3,-39.9Z" transform="translate(100 100)" />
</svg>
