<?xml version="1.0" standalone="no"?>
<svg viewBox="0 0 200 200" xmlns="http://www.w3.org/2000/svg">
  <path fill="#8A3FFC" d="M44.2,-70.1C57.1,-69.1,67.2,-56.9,61.7,-43.3C56.3,-29.7,35.4,-14.9,25.6,-5.7C15.7,3.5,17,7,22.9,21.4C28.8,35.8,39.3,61,36.2,69.1C33.2,77.2,16.6,68.1,1.9,64.7C-12.7,61.3,-25.4,63.7,-38.2,61.2C-51,58.8,-63.9,51.6,-73.9,40.6C-83.8,29.6,-90.8,14.8,-80.3,6.1C-69.7,-2.6,-41.6,-5.2,-29.2,-12C-16.8,-18.7,-20.1,-29.7,-17.9,-36.8C-15.6,-43.8,-7.8,-47,3.9,-53.8C15.7,-60.6,31.3,-71,44.2,-70.1Z" transform="translate(100 100)" />
</svg>
