<?xml version="1.0" standalone="no"?>
<svg viewBox="0 0 200 200" xmlns="http://www.w3.org/2000/svg">
  <path fill="#8A3FFC" d="M30,-43.2C42.6,-44.7,59,-44.2,58.3,-36.6C57.6,-29,39.7,-14.5,34.7,-2.9C29.7,8.8,37.6,17.5,35.5,20.1C33.3,22.7,21.2,19.1,13.6,28.8C6,38.4,3,61.2,0.1,61.1C-2.9,61,-5.7,37.9,-14.1,28.7C-22.5,19.6,-36.5,24.4,-35.4,21.9C-34.3,19.4,-18.1,9.7,-14.1,2.3C-10,-5.1,-18.2,-10.1,-22.8,-18.7C-27.5,-27.3,-28.6,-39.5,-24.2,-42.6C-19.9,-45.8,-9.9,-40,-0.6,-39C8.7,-38,17.4,-41.6,30,-43.2Z" transform="translate(100 100)" />
</svg>
