<?xml version="1.0" standalone="no"?>
<svg viewBox="0 0 200 200" xmlns="http://www.w3.org/2000/svg">
  <path fill="#8A3FFC" d="M44.4,-76.3C58,-69.1,69.6,-58,78.2,-44.7C86.8,-31.3,92.3,-15.6,92.8,0.3C93.3,16.2,88.8,32.5,80,45.4C71.1,58.3,57.9,67.9,43.9,75.7C29.8,83.6,14.9,89.7,-0.6,90.7C-16.1,91.7,-32.2,87.6,-45.3,79.3C-58.4,70.9,-68.6,58.2,-76.6,44.3C-84.6,30.4,-90.4,15.2,-91.7,-0.7C-92.9,-16.6,-89.5,-33.2,-81.2,-46.5C-72.9,-59.9,-59.6,-70,-45.2,-76.8C-30.9,-83.6,-15.4,-87,0,-87C15.4,-87,30.9,-83.6,44.4,-76.3Z" transform="translate(100 100)" />
</svg>
