<?xml version="1.0" standalone="no"?>
<svg viewBox="0 0 200 200" xmlns="http://www.w3.org/2000/svg">
  <path fill="#8A3FFC" d="M34.7,-60.2C46,-53.6,57,-46.4,61.9,-36.3C66.8,-26.1,65.7,-13.1,67.5,1C69.2,15.1,73.9,30.2,69.2,40.7C64.4,51.2,50.4,57.1,37.3,65.9C24.2,74.6,12.1,86.4,-2.2,90.1C-16.4,93.8,-32.9,89.6,-45.5,80.6C-58.2,71.6,-67.1,57.7,-74.5,43.5C-81.8,29.3,-87.7,14.6,-86.9,0.4C-86.2,-13.8,-78.9,-27.6,-69.6,-38.5C-60.3,-49.4,-49.1,-57.5,-37.2,-63.8C-25.2,-70.1,-12.6,-74.7,-0.5,-73.9C11.7,-73.1,23.4,-66.9,34.7,-60.2Z" transform="translate(100 100)" />
</svg>
